# xmcd
#
# Track frame offsets: 
#        150
#        11800
#        31555
#        52678
#        71138
#        94048
#        113200
#        133501
#        145966
#        165046
#        183103
#        205142
#        226494
#
# Disc length: 3379 seconds
#
# Revision: 0
# Processed by: cddbd v1.5.2PL0 Copyright (c) Steve Scherf et al.
# Submitted via: ExactAudioCopyFreeDBPlugin 1.0
#
DISCID=9e0d310d
DTITLE=Extrafish - Simplify This Fish
DYEAR=2016
DGENRE=
TTITLE0=Kodomofisch
TTITLE1=Dschingisbalkan
TTITLE2=Hyperactive Dschingisbalkan Level I
TTITLE3=Absynthia
TTITLE4=B.P.F.H.
TTITLE5=Fischo Fabuloso
TTITLE6=Engineer
TTITLE7=Boris Karlov Fisch
TTITLE8=Hyperactive Dschingisbalkan Level II
TTITLE9=Imaginary Fish
TTITLE10=Simplify This Horse
TTITLE11=Oza Ozaza
TTITLE12=K Fisch
EXTD=
EXTT0=
EXTT1=
EXTT2=
EXTT3=
EXTT4=
EXTT5=
EXTT6=
EXTT7=
EXTT8=
EXTT9=
EXTT10=
EXTT11=
EXTT12=
PLAYORDER=
